<svg xmlns="http://www.w3.org/2000/svg"
 xmlns:xlink="http://www.w3.org/1999/xlink"
 width="23px" height="20px"  viewBox="0 0 23 20">
<path fill-rule="evenodd"  fill="#ffffff"
 d="M3.4999695,1.9998627 C3.4999695,1.9998627 20.49997,1.9998627 20.49997,1.9998627 C21.328339,1.9998627 21.999908,2.6715393 21.999908,3.4998016 C21.999908,4.328377 21.328339,4.999733 20.49997,4.999733 C20.49997,4.999733 3.4999695,4.999733 3.4999695,4.999733 C2.6715088,4.999733 1.999939,4.328377 1.999939,3.4998016 C1.999939,2.6715393 2.6715088,1.9998627 3.4999695,1.9998627 ZM3.4999695,8.999992 C3.4999695,8.999992 20.49997,8.999992 20.49997,8.999992 C21.328339,8.999992 21.999908,9.671349 21.999908,10.499931 C21.999908,11.328194 21.328339,11.99987 20.49997,11.99987 C20.49997,11.99987 3.4999695,11.99987 3.4999695,11.99987 C2.6715088,11.99987 1.999939,11.328194 1.999939,10.499931 C1.999939,9.671349 2.6715088,8.999992 3.4999695,8.999992 ZM3.4999695,15.999809 C3.4999695,15.999809 20.49997,15.999809 20.49997,15.999809 C21.328339,15.999809 21.999908,16.671478 21.999908,17.49974 C21.999908,18.328323 21.328339,19.0 20.49997,19.0 C20.49997,19.0 3.4999695,19.0 3.4999695,19.0 C2.6715088,19.0 1.999939,18.328323 1.999939,17.49974 C1.999939,16.671478 2.6715088,15.999809 3.4999695,15.999809 Z"/>
</svg>